<svg width="204" height="204" viewBox="0 0 204 204" fill="none" xmlns="http://www.w3.org/2000/svg">
<rect width="204" height="204" fill="white"/>
<circle cx="112" cy="100" r="64" fill="#FFE900"/>
<circle cx="112" cy="102" r="45" fill="#F4442E"/>
<path d="M169.254 100C172.98 100 176.037 96.9714 175.645 93.2662C175 87.1725 173.482 81.1911 171.128 75.5083C167.912 67.7434 163.198 60.6881 157.255 54.7452C151.312 48.8022 144.257 44.088 136.492 40.8717C128.727 37.6554 120.405 36 112 36C103.595 36 95.2731 37.6554 87.5083 40.8717C79.7434 44.088 72.6881 48.8022 66.7452 54.7452C60.8022 60.6881 56.088 67.7434 52.8717 75.5083C50.5178 81.1911 49 87.1725 48.3552 93.2663C47.9632 96.9714 51.0204 100 54.7462 100V100C58.472 100 61.446 96.9664 61.9422 93.2738C62.5228 88.9533 63.6615 84.7166 65.337 80.6716C67.8752 74.5437 71.5956 68.9758 76.2857 64.2857C80.9758 59.5956 86.5437 55.8753 92.6716 53.337C98.7994 50.7988 105.367 49.4923 112 49.4923C118.633 49.4923 125.201 50.7988 131.328 53.337C137.456 55.8753 143.024 59.5956 147.714 64.2857C152.404 68.9758 156.125 74.5437 158.663 80.6716C160.338 84.7166 161.477 88.9533 162.058 93.2738C162.554 96.9664 165.528 100 169.254 100V100Z" fill="black"/>
</svg>
